<mxfile host="Electron" modified="2024-06-11T16:40:17.657Z" agent="Mozilla/5.0 (Windows NT 10.0; Win64; x64) AppleWebKit/537.36 (KHTML, like Gecko) draw.io/24.5.1 Chrome/124.0.6367.207 Electron/30.0.6 Safari/537.36" etag="xTpnE1ORv_BLXXxY_UUc" version="24.5.1" type="device">
  <diagram name="第 1 页" id="PaK59IkcqOQnbD7a4uD5">
    <mxGraphModel dx="1621" dy="823" grid="1" gridSize="10" guides="1" tooltips="1" connect="1" arrows="1" fold="1" page="0" pageScale="1" pageWidth="1169" pageHeight="827" math="0" shadow="0">
      <root>
        <mxCell id="0" />
        <mxCell id="1" parent="0" />
        <mxCell id="OOIMPz-87yu5LSoQDRSZ-15" style="edgeStyle=orthogonalEdgeStyle;rounded=0;orthogonalLoop=1;jettySize=auto;html=1;" edge="1" parent="1" source="OOIMPz-87yu5LSoQDRSZ-1" target="OOIMPz-87yu5LSoQDRSZ-2">
          <mxGeometry relative="1" as="geometry" />
        </mxCell>
        <mxCell id="OOIMPz-87yu5LSoQDRSZ-16" value="Blit" style="edgeLabel;html=1;align=center;verticalAlign=middle;resizable=0;points=[];" vertex="1" connectable="0" parent="OOIMPz-87yu5LSoQDRSZ-15">
          <mxGeometry x="-0.2764" y="-3" relative="1" as="geometry">
            <mxPoint x="11" y="-3" as="offset" />
          </mxGeometry>
        </mxCell>
        <mxCell id="OOIMPz-87yu5LSoQDRSZ-1" value="Mip 0" style="rounded=0;whiteSpace=wrap;html=1;" vertex="1" parent="1">
          <mxGeometry x="120" y="300" width="120" height="60" as="geometry" />
        </mxCell>
        <mxCell id="OOIMPz-87yu5LSoQDRSZ-17" style="edgeStyle=orthogonalEdgeStyle;rounded=0;orthogonalLoop=1;jettySize=auto;html=1;" edge="1" parent="1" source="OOIMPz-87yu5LSoQDRSZ-2" target="OOIMPz-87yu5LSoQDRSZ-9">
          <mxGeometry relative="1" as="geometry" />
        </mxCell>
        <mxCell id="OOIMPz-87yu5LSoQDRSZ-18" value="Blur" style="edgeLabel;html=1;align=center;verticalAlign=middle;resizable=0;points=[];" vertex="1" connectable="0" parent="OOIMPz-87yu5LSoQDRSZ-17">
          <mxGeometry relative="1" as="geometry">
            <mxPoint as="offset" />
          </mxGeometry>
        </mxCell>
        <mxCell id="OOIMPz-87yu5LSoQDRSZ-2" value="Mip 1" style="rounded=0;whiteSpace=wrap;html=1;" vertex="1" parent="1">
          <mxGeometry x="320" y="300" width="120" height="60" as="geometry" />
        </mxCell>
        <mxCell id="OOIMPz-87yu5LSoQDRSZ-41" style="edgeStyle=orthogonalEdgeStyle;rounded=0;orthogonalLoop=1;jettySize=auto;html=1;exitX=0.5;exitY=1;exitDx=0;exitDy=0;entryX=0.5;entryY=0;entryDx=0;entryDy=0;" edge="1" parent="1" source="OOIMPz-87yu5LSoQDRSZ-3" target="OOIMPz-87yu5LSoQDRSZ-10">
          <mxGeometry relative="1" as="geometry" />
        </mxCell>
        <mxCell id="OOIMPz-87yu5LSoQDRSZ-46" value="Blur" style="edgeLabel;html=1;align=center;verticalAlign=middle;resizable=0;points=[];" vertex="1" connectable="0" parent="OOIMPz-87yu5LSoQDRSZ-41">
          <mxGeometry x="0.025" y="-2" relative="1" as="geometry">
            <mxPoint as="offset" />
          </mxGeometry>
        </mxCell>
        <mxCell id="OOIMPz-87yu5LSoQDRSZ-3" value="Mip 2" style="rounded=0;whiteSpace=wrap;html=1;" vertex="1" parent="1">
          <mxGeometry x="520" y="300" width="120" height="60" as="geometry" />
        </mxCell>
        <mxCell id="OOIMPz-87yu5LSoQDRSZ-40" style="edgeStyle=orthogonalEdgeStyle;rounded=0;orthogonalLoop=1;jettySize=auto;html=1;exitX=0.5;exitY=1;exitDx=0;exitDy=0;entryX=0.5;entryY=0;entryDx=0;entryDy=0;" edge="1" parent="1" source="OOIMPz-87yu5LSoQDRSZ-4" target="OOIMPz-87yu5LSoQDRSZ-11">
          <mxGeometry relative="1" as="geometry" />
        </mxCell>
        <mxCell id="OOIMPz-87yu5LSoQDRSZ-47" value="Blur" style="edgeLabel;html=1;align=center;verticalAlign=middle;resizable=0;points=[];" vertex="1" connectable="0" parent="OOIMPz-87yu5LSoQDRSZ-40">
          <mxGeometry x="-0.025" y="1" relative="1" as="geometry">
            <mxPoint x="-1" y="1" as="offset" />
          </mxGeometry>
        </mxCell>
        <mxCell id="OOIMPz-87yu5LSoQDRSZ-4" value="Mip 3" style="rounded=0;whiteSpace=wrap;html=1;" vertex="1" parent="1">
          <mxGeometry x="720" y="300" width="120" height="60" as="geometry" />
        </mxCell>
        <mxCell id="OOIMPz-87yu5LSoQDRSZ-42" style="edgeStyle=orthogonalEdgeStyle;rounded=0;orthogonalLoop=1;jettySize=auto;html=1;exitX=0.5;exitY=1;exitDx=0;exitDy=0;entryX=0.5;entryY=0;entryDx=0;entryDy=0;" edge="1" parent="1" source="OOIMPz-87yu5LSoQDRSZ-5" target="OOIMPz-87yu5LSoQDRSZ-12">
          <mxGeometry relative="1" as="geometry" />
        </mxCell>
        <mxCell id="OOIMPz-87yu5LSoQDRSZ-48" value="Blur" style="edgeLabel;html=1;align=center;verticalAlign=middle;resizable=0;points=[];" vertex="1" connectable="0" parent="OOIMPz-87yu5LSoQDRSZ-42">
          <mxGeometry x="0.05" y="1" relative="1" as="geometry">
            <mxPoint as="offset" />
          </mxGeometry>
        </mxCell>
        <mxCell id="OOIMPz-87yu5LSoQDRSZ-5" value="Mip 4" style="rounded=0;whiteSpace=wrap;html=1;" vertex="1" parent="1">
          <mxGeometry x="920" y="300" width="120" height="60" as="geometry" />
        </mxCell>
        <mxCell id="OOIMPz-87yu5LSoQDRSZ-43" style="edgeStyle=orthogonalEdgeStyle;rounded=0;orthogonalLoop=1;jettySize=auto;html=1;exitX=0.5;exitY=1;exitDx=0;exitDy=0;" edge="1" parent="1" source="OOIMPz-87yu5LSoQDRSZ-6" target="OOIMPz-87yu5LSoQDRSZ-13">
          <mxGeometry relative="1" as="geometry" />
        </mxCell>
        <mxCell id="OOIMPz-87yu5LSoQDRSZ-49" value="Blur" style="edgeLabel;html=1;align=center;verticalAlign=middle;resizable=0;points=[];" vertex="1" connectable="0" parent="OOIMPz-87yu5LSoQDRSZ-43">
          <mxGeometry x="0.05" relative="1" as="geometry">
            <mxPoint as="offset" />
          </mxGeometry>
        </mxCell>
        <mxCell id="OOIMPz-87yu5LSoQDRSZ-6" value="Mip 5" style="rounded=0;whiteSpace=wrap;html=1;" vertex="1" parent="1">
          <mxGeometry x="1120" y="300" width="120" height="60" as="geometry" />
        </mxCell>
        <mxCell id="OOIMPz-87yu5LSoQDRSZ-45" style="edgeStyle=orthogonalEdgeStyle;rounded=0;orthogonalLoop=1;jettySize=auto;html=1;exitX=0.5;exitY=1;exitDx=0;exitDy=0;entryX=0.5;entryY=0;entryDx=0;entryDy=0;" edge="1" parent="1" source="OOIMPz-87yu5LSoQDRSZ-7" target="OOIMPz-87yu5LSoQDRSZ-14">
          <mxGeometry relative="1" as="geometry" />
        </mxCell>
        <mxCell id="OOIMPz-87yu5LSoQDRSZ-50" value="Blur" style="edgeLabel;html=1;align=center;verticalAlign=middle;resizable=0;points=[];" vertex="1" connectable="0" parent="OOIMPz-87yu5LSoQDRSZ-45">
          <mxGeometry x="0.1333" y="1" relative="1" as="geometry">
            <mxPoint as="offset" />
          </mxGeometry>
        </mxCell>
        <mxCell id="OOIMPz-87yu5LSoQDRSZ-7" value="Mip 6" style="rounded=0;whiteSpace=wrap;html=1;" vertex="1" parent="1">
          <mxGeometry x="1320" y="300" width="120" height="60" as="geometry" />
        </mxCell>
        <mxCell id="OOIMPz-87yu5LSoQDRSZ-33" style="edgeStyle=orthogonalEdgeStyle;rounded=0;orthogonalLoop=1;jettySize=auto;html=1;exitX=0.5;exitY=1;exitDx=0;exitDy=0;entryX=1;entryY=0.75;entryDx=0;entryDy=0;" edge="1" parent="1" source="OOIMPz-87yu5LSoQDRSZ-8" target="OOIMPz-87yu5LSoQDRSZ-14">
          <mxGeometry relative="1" as="geometry" />
        </mxCell>
        <mxCell id="OOIMPz-87yu5LSoQDRSZ-34" value="Blur &amp;amp; Add" style="edgeLabel;html=1;align=center;verticalAlign=middle;resizable=0;points=[];" vertex="1" connectable="0" parent="OOIMPz-87yu5LSoQDRSZ-33">
          <mxGeometry x="0.4289" y="2" relative="1" as="geometry">
            <mxPoint as="offset" />
          </mxGeometry>
        </mxCell>
        <mxCell id="OOIMPz-87yu5LSoQDRSZ-8" value="Mip 7" style="rounded=0;whiteSpace=wrap;html=1;" vertex="1" parent="1">
          <mxGeometry x="1520" y="300" width="120" height="60" as="geometry" />
        </mxCell>
        <mxCell id="OOIMPz-87yu5LSoQDRSZ-20" style="edgeStyle=orthogonalEdgeStyle;rounded=0;orthogonalLoop=1;jettySize=auto;html=1;exitX=1;exitY=0.25;exitDx=0;exitDy=0;entryX=0;entryY=0.5;entryDx=0;entryDy=0;" edge="1" parent="1" source="OOIMPz-87yu5LSoQDRSZ-9" target="OOIMPz-87yu5LSoQDRSZ-3">
          <mxGeometry relative="1" as="geometry" />
        </mxCell>
        <mxCell id="OOIMPz-87yu5LSoQDRSZ-21" value="Blit" style="edgeLabel;html=1;align=center;verticalAlign=middle;resizable=0;points=[];" vertex="1" connectable="0" parent="OOIMPz-87yu5LSoQDRSZ-20">
          <mxGeometry x="-0.0146" y="-2" relative="1" as="geometry">
            <mxPoint x="-2" y="-4" as="offset" />
          </mxGeometry>
        </mxCell>
        <mxCell id="OOIMPz-87yu5LSoQDRSZ-61" style="edgeStyle=orthogonalEdgeStyle;rounded=0;orthogonalLoop=1;jettySize=auto;html=1;exitX=0.5;exitY=1;exitDx=0;exitDy=0;entryX=0.5;entryY=0;entryDx=0;entryDy=0;" edge="1" parent="1" source="OOIMPz-87yu5LSoQDRSZ-9" target="OOIMPz-87yu5LSoQDRSZ-59">
          <mxGeometry relative="1" as="geometry" />
        </mxCell>
        <mxCell id="OOIMPz-87yu5LSoQDRSZ-9" value="Mip 0" style="rounded=0;whiteSpace=wrap;html=1;" vertex="1" parent="1">
          <mxGeometry x="320" y="440" width="120" height="60" as="geometry" />
        </mxCell>
        <mxCell id="OOIMPz-87yu5LSoQDRSZ-39" style="edgeStyle=orthogonalEdgeStyle;rounded=0;orthogonalLoop=1;jettySize=auto;html=1;exitX=0;exitY=0.75;exitDx=0;exitDy=0;entryX=1;entryY=0.75;entryDx=0;entryDy=0;" edge="1" parent="1" source="OOIMPz-87yu5LSoQDRSZ-10" target="OOIMPz-87yu5LSoQDRSZ-9">
          <mxGeometry relative="1" as="geometry" />
        </mxCell>
        <mxCell id="OOIMPz-87yu5LSoQDRSZ-55" value="Blur &amp;amp; Add" style="edgeLabel;html=1;align=center;verticalAlign=middle;resizable=0;points=[];" vertex="1" connectable="0" parent="OOIMPz-87yu5LSoQDRSZ-39">
          <mxGeometry x="0.1917" y="-1" relative="1" as="geometry">
            <mxPoint x="8" as="offset" />
          </mxGeometry>
        </mxCell>
        <mxCell id="OOIMPz-87yu5LSoQDRSZ-10" value="Mip 1" style="rounded=0;whiteSpace=wrap;html=1;" vertex="1" parent="1">
          <mxGeometry x="520" y="440" width="120" height="60" as="geometry" />
        </mxCell>
        <mxCell id="OOIMPz-87yu5LSoQDRSZ-24" style="edgeStyle=orthogonalEdgeStyle;rounded=0;orthogonalLoop=1;jettySize=auto;html=1;exitX=1;exitY=0.25;exitDx=0;exitDy=0;entryX=0;entryY=0.5;entryDx=0;entryDy=0;" edge="1" parent="1" source="OOIMPz-87yu5LSoQDRSZ-11" target="OOIMPz-87yu5LSoQDRSZ-5">
          <mxGeometry relative="1" as="geometry" />
        </mxCell>
        <mxCell id="OOIMPz-87yu5LSoQDRSZ-31" value="Blit" style="edgeLabel;html=1;align=center;verticalAlign=middle;resizable=0;points=[];" vertex="1" connectable="0" parent="OOIMPz-87yu5LSoQDRSZ-24">
          <mxGeometry x="-0.0472" y="-1" relative="1" as="geometry">
            <mxPoint x="-1" y="-7" as="offset" />
          </mxGeometry>
        </mxCell>
        <mxCell id="OOIMPz-87yu5LSoQDRSZ-38" style="edgeStyle=orthogonalEdgeStyle;rounded=0;orthogonalLoop=1;jettySize=auto;html=1;exitX=0;exitY=0.75;exitDx=0;exitDy=0;entryX=1;entryY=0.75;entryDx=0;entryDy=0;" edge="1" parent="1" source="OOIMPz-87yu5LSoQDRSZ-11" target="OOIMPz-87yu5LSoQDRSZ-10">
          <mxGeometry relative="1" as="geometry" />
        </mxCell>
        <mxCell id="OOIMPz-87yu5LSoQDRSZ-54" value="Blur &amp;amp; Add" style="edgeLabel;html=1;align=center;verticalAlign=middle;resizable=0;points=[];" vertex="1" connectable="0" parent="OOIMPz-87yu5LSoQDRSZ-38">
          <mxGeometry x="0.1417" relative="1" as="geometry">
            <mxPoint x="6" as="offset" />
          </mxGeometry>
        </mxCell>
        <mxCell id="OOIMPz-87yu5LSoQDRSZ-11" value="Mip 2" style="rounded=0;whiteSpace=wrap;html=1;" vertex="1" parent="1">
          <mxGeometry x="720" y="440" width="120" height="60" as="geometry" />
        </mxCell>
        <mxCell id="OOIMPz-87yu5LSoQDRSZ-25" style="edgeStyle=orthogonalEdgeStyle;rounded=0;orthogonalLoop=1;jettySize=auto;html=1;exitX=1;exitY=0.25;exitDx=0;exitDy=0;entryX=0;entryY=0.5;entryDx=0;entryDy=0;" edge="1" parent="1" source="OOIMPz-87yu5LSoQDRSZ-12" target="OOIMPz-87yu5LSoQDRSZ-6">
          <mxGeometry relative="1" as="geometry" />
        </mxCell>
        <mxCell id="OOIMPz-87yu5LSoQDRSZ-30" value="Blit" style="edgeLabel;html=1;align=center;verticalAlign=middle;resizable=0;points=[];" vertex="1" connectable="0" parent="OOIMPz-87yu5LSoQDRSZ-25">
          <mxGeometry x="-0.0081" y="-2" relative="1" as="geometry">
            <mxPoint x="-2" y="-3" as="offset" />
          </mxGeometry>
        </mxCell>
        <mxCell id="OOIMPz-87yu5LSoQDRSZ-37" style="edgeStyle=orthogonalEdgeStyle;rounded=0;orthogonalLoop=1;jettySize=auto;html=1;exitX=0;exitY=0.75;exitDx=0;exitDy=0;entryX=1;entryY=0.75;entryDx=0;entryDy=0;" edge="1" parent="1" source="OOIMPz-87yu5LSoQDRSZ-12" target="OOIMPz-87yu5LSoQDRSZ-11">
          <mxGeometry relative="1" as="geometry" />
        </mxCell>
        <mxCell id="OOIMPz-87yu5LSoQDRSZ-53" value="Blur &amp;amp; Add" style="edgeLabel;html=1;align=center;verticalAlign=middle;resizable=0;points=[];" vertex="1" connectable="0" parent="OOIMPz-87yu5LSoQDRSZ-37">
          <mxGeometry x="-0.075" relative="1" as="geometry">
            <mxPoint x="-3" y="1" as="offset" />
          </mxGeometry>
        </mxCell>
        <mxCell id="OOIMPz-87yu5LSoQDRSZ-12" value="MIp 3" style="rounded=0;whiteSpace=wrap;html=1;" vertex="1" parent="1">
          <mxGeometry x="920" y="440" width="120" height="60" as="geometry" />
        </mxCell>
        <mxCell id="OOIMPz-87yu5LSoQDRSZ-26" style="edgeStyle=orthogonalEdgeStyle;rounded=0;orthogonalLoop=1;jettySize=auto;html=1;exitX=1;exitY=0.25;exitDx=0;exitDy=0;entryX=0;entryY=0.5;entryDx=0;entryDy=0;" edge="1" parent="1" source="OOIMPz-87yu5LSoQDRSZ-13" target="OOIMPz-87yu5LSoQDRSZ-7">
          <mxGeometry relative="1" as="geometry" />
        </mxCell>
        <mxCell id="OOIMPz-87yu5LSoQDRSZ-29" value="Blit" style="edgeLabel;html=1;align=center;verticalAlign=middle;resizable=0;points=[];" vertex="1" connectable="0" parent="OOIMPz-87yu5LSoQDRSZ-26">
          <mxGeometry x="0.0374" relative="1" as="geometry">
            <mxPoint as="offset" />
          </mxGeometry>
        </mxCell>
        <mxCell id="OOIMPz-87yu5LSoQDRSZ-36" style="edgeStyle=orthogonalEdgeStyle;rounded=0;orthogonalLoop=1;jettySize=auto;html=1;exitX=0;exitY=0.75;exitDx=0;exitDy=0;entryX=1;entryY=0.75;entryDx=0;entryDy=0;" edge="1" parent="1" source="OOIMPz-87yu5LSoQDRSZ-13" target="OOIMPz-87yu5LSoQDRSZ-12">
          <mxGeometry relative="1" as="geometry" />
        </mxCell>
        <mxCell id="OOIMPz-87yu5LSoQDRSZ-52" value="Blur &amp;amp; Add" style="edgeLabel;html=1;align=center;verticalAlign=middle;resizable=0;points=[];" vertex="1" connectable="0" parent="OOIMPz-87yu5LSoQDRSZ-36">
          <mxGeometry y="1" relative="1" as="geometry">
            <mxPoint as="offset" />
          </mxGeometry>
        </mxCell>
        <mxCell id="OOIMPz-87yu5LSoQDRSZ-13" value="MIp 4" style="rounded=0;whiteSpace=wrap;html=1;" vertex="1" parent="1">
          <mxGeometry x="1120" y="440" width="120" height="60" as="geometry" />
        </mxCell>
        <mxCell id="OOIMPz-87yu5LSoQDRSZ-27" style="edgeStyle=orthogonalEdgeStyle;rounded=0;orthogonalLoop=1;jettySize=auto;html=1;exitX=1;exitY=0.25;exitDx=0;exitDy=0;entryX=0;entryY=0.5;entryDx=0;entryDy=0;" edge="1" parent="1" source="OOIMPz-87yu5LSoQDRSZ-14" target="OOIMPz-87yu5LSoQDRSZ-8">
          <mxGeometry relative="1" as="geometry" />
        </mxCell>
        <mxCell id="OOIMPz-87yu5LSoQDRSZ-28" value="Blit" style="edgeLabel;html=1;align=center;verticalAlign=middle;resizable=0;points=[];" vertex="1" connectable="0" parent="OOIMPz-87yu5LSoQDRSZ-27">
          <mxGeometry x="0.0374" relative="1" as="geometry">
            <mxPoint as="offset" />
          </mxGeometry>
        </mxCell>
        <mxCell id="OOIMPz-87yu5LSoQDRSZ-35" style="edgeStyle=orthogonalEdgeStyle;rounded=0;orthogonalLoop=1;jettySize=auto;html=1;exitX=0;exitY=0.75;exitDx=0;exitDy=0;entryX=1;entryY=0.75;entryDx=0;entryDy=0;" edge="1" parent="1" source="OOIMPz-87yu5LSoQDRSZ-14" target="OOIMPz-87yu5LSoQDRSZ-13">
          <mxGeometry relative="1" as="geometry" />
        </mxCell>
        <mxCell id="OOIMPz-87yu5LSoQDRSZ-51" value="Blur &amp;amp; Add" style="edgeLabel;html=1;align=center;verticalAlign=middle;resizable=0;points=[];" vertex="1" connectable="0" parent="OOIMPz-87yu5LSoQDRSZ-35">
          <mxGeometry x="0.325" y="2" relative="1" as="geometry">
            <mxPoint x="13" as="offset" />
          </mxGeometry>
        </mxCell>
        <mxCell id="OOIMPz-87yu5LSoQDRSZ-14" value="MIp 5" style="rounded=0;whiteSpace=wrap;html=1;" vertex="1" parent="1">
          <mxGeometry x="1320" y="440" width="120" height="60" as="geometry" />
        </mxCell>
        <mxCell id="OOIMPz-87yu5LSoQDRSZ-22" style="edgeStyle=orthogonalEdgeStyle;rounded=0;orthogonalLoop=1;jettySize=auto;html=1;exitX=1;exitY=0.25;exitDx=0;exitDy=0;entryX=0;entryY=0.5;entryDx=0;entryDy=0;" edge="1" parent="1" source="OOIMPz-87yu5LSoQDRSZ-10" target="OOIMPz-87yu5LSoQDRSZ-4">
          <mxGeometry relative="1" as="geometry">
            <mxPoint x="639.5" y="475" as="sourcePoint" />
            <mxPoint x="719.5" y="350" as="targetPoint" />
          </mxGeometry>
        </mxCell>
        <mxCell id="OOIMPz-87yu5LSoQDRSZ-23" value="Blit" style="edgeLabel;html=1;align=center;verticalAlign=middle;resizable=0;points=[];" vertex="1" connectable="0" parent="OOIMPz-87yu5LSoQDRSZ-22">
          <mxGeometry x="-0.0146" y="-2" relative="1" as="geometry">
            <mxPoint x="-2" y="-4" as="offset" />
          </mxGeometry>
        </mxCell>
        <mxCell id="OOIMPz-87yu5LSoQDRSZ-57" style="edgeStyle=orthogonalEdgeStyle;rounded=0;orthogonalLoop=1;jettySize=auto;html=1;exitX=0.75;exitY=1;exitDx=0;exitDy=0;entryX=0;entryY=0.5;entryDx=0;entryDy=0;" edge="1" parent="1" source="OOIMPz-87yu5LSoQDRSZ-56" target="OOIMPz-87yu5LSoQDRSZ-1">
          <mxGeometry relative="1" as="geometry" />
        </mxCell>
        <mxCell id="OOIMPz-87yu5LSoQDRSZ-58" value="Filter" style="edgeLabel;html=1;align=center;verticalAlign=middle;resizable=0;points=[];" vertex="1" connectable="0" parent="OOIMPz-87yu5LSoQDRSZ-57">
          <mxGeometry x="0.3037" y="1" relative="1" as="geometry">
            <mxPoint x="13" y="1" as="offset" />
          </mxGeometry>
        </mxCell>
        <mxCell id="OOIMPz-87yu5LSoQDRSZ-60" style="edgeStyle=orthogonalEdgeStyle;rounded=0;orthogonalLoop=1;jettySize=auto;html=1;exitX=0.25;exitY=1;exitDx=0;exitDy=0;entryX=0.25;entryY=0;entryDx=0;entryDy=0;" edge="1" parent="1" source="OOIMPz-87yu5LSoQDRSZ-56" target="OOIMPz-87yu5LSoQDRSZ-59">
          <mxGeometry relative="1" as="geometry" />
        </mxCell>
        <mxCell id="OOIMPz-87yu5LSoQDRSZ-56" value="Luminance" style="rounded=0;whiteSpace=wrap;html=1;" vertex="1" parent="1">
          <mxGeometry x="-60" y="180" width="120" height="60" as="geometry" />
        </mxCell>
        <mxCell id="OOIMPz-87yu5LSoQDRSZ-59" value="Composite Output" style="rounded=0;whiteSpace=wrap;html=1;" vertex="1" parent="1">
          <mxGeometry x="-60" y="590" width="120" height="60" as="geometry" />
        </mxCell>
      </root>
    </mxGraphModel>
  </diagram>
</mxfile>
